<?xml version="1.0" encoding="utf-8"?>
<!-- Generator: Adobe Illustrator 27.5.0, SVG Export Plug-In . SVG Version: 6.00 Build 0)  -->
<svg version="1.1" xmlns="http://www.w3.org/2000/svg" xmlns:xlink="http://www.w3.org/1999/xlink" x="0px" y="0px"
	 viewBox="0 0 750 500" style="enable-background:new 0 0 750 500;" xml:space="preserve">
<g id="BACKGROUND">
	<rect style="fill:#EDEEF7;" width="750" height="500"/>
</g>
<g id="OBJECTS">
	<g>
		<defs>
			<rect id="SVGID_1_" width="750" height="500"/>
		</defs>
		<clipPath id="SVGID_00000118395182607778965060000018020951555442854307_">
			<use xlink:href="#SVGID_1_"  style="overflow:visible;"/>
		</clipPath>
		<g style="clip-path:url(#SVGID_00000118395182607778965060000018020951555442854307_);">
			
				<rect x="585.012" y="57.907" transform="matrix(-1 -1.224647e-16 1.224647e-16 -1 1227.7994 157.4471)" style="fill:#B8B5FF;" width="57.776" height="41.633"/>
			
				<rect x="585.012" y="99.528" transform="matrix(-1 -1.224647e-16 1.224647e-16 -1 1227.7994 226.1918)" style="fill:#DAD9FF;" width="57.776" height="27.137"/>
			
				<rect x="584.906" y="0.114" transform="matrix(-1 -1.224647e-16 1.224647e-16 -1 1227.7046 58.1202)" style="fill:#7868E6;" width="57.893" height="57.893"/>
		</g>
		<g style="clip-path:url(#SVGID_00000118395182607778965060000018020951555442854307_);">
			
				<rect x="474.499" y="98.663" transform="matrix(-1 -1.224647e-16 1.224647e-16 -1 1047.5177 268.319)" style="fill:#B8B5FF;" width="98.521" height="70.994"/>
			
				<rect x="474.499" y="169.635" transform="matrix(-1 -1.224647e-16 1.224647e-16 -1 1047.5177 385.5429)" style="fill:#DAD9FF;" width="98.521" height="46.273"/>
			
				<rect x="474.319" y="0.114" transform="matrix(-1 -1.224647e-16 1.224647e-16 -1 1047.3562 98.9465)" style="fill:#7868E6;" width="98.719" height="98.719"/>
		</g>
		<g style="clip-path:url(#SVGID_00000118395182607778965060000018020951555442854307_);">
			
				<rect x="413.436" y="44.614" transform="matrix(-1 -1.224647e-16 1.224647e-16 -1 871.3601 121.2844)" style="fill:#B8B5FF;" width="44.487" height="32.057"/>
			
				<rect x="413.436" y="76.661" transform="matrix(-1 -1.224647e-16 1.224647e-16 -1 871.3601 174.2169)" style="fill:#DAD9FF;" width="44.487" height="20.895"/>
			
				<rect x="413.355" y="0.114" transform="matrix(-1 -1.224647e-16 1.224647e-16 -1 871.287 44.8041)" style="fill:#7868E6;" width="44.577" height="44.577"/>
		</g>
		<g style="clip-path:url(#SVGID_00000118395182607778965060000018020951555442854307_);">
			
				<rect x="378.229" y="21.241" transform="matrix(-1 -1.224647e-16 1.224647e-16 -1 777.5791 57.7013)" style="fill:#B8B5FF;" width="21.121" height="15.22"/>
			
				<rect x="378.229" y="36.456" transform="matrix(-1 -1.224647e-16 1.224647e-16 -1 777.5791 82.832)" style="fill:#DAD9FF;" width="21.121" height="9.92"/>
			
				<rect x="378.19" y="0.114" transform="matrix(-1 -1.224647e-16 1.224647e-16 -1 777.5444 21.3909)" style="fill:#7868E6;" width="21.164" height="21.164"/>
		</g>
		<g style="clip-path:url(#SVGID_00000118395182607778965060000018020951555442854307_);">
			
				<rect x="654.742" y="21.241" transform="matrix(-1 -1.224647e-16 1.224647e-16 -1 1330.605 57.7013)" style="fill:#B8B5FF;" width="21.121" height="15.22"/>
			
				<rect x="654.742" y="36.456" transform="matrix(-1 -1.224647e-16 1.224647e-16 -1 1330.605 82.832)" style="fill:#DAD9FF;" width="21.121" height="9.92"/>
			
				<rect x="654.703" y="0.114" transform="matrix(-1 -1.224647e-16 1.224647e-16 -1 1330.5702 21.3909)" style="fill:#7868E6;" width="21.164" height="21.164"/>
		</g>
		<g style="clip-path:url(#SVGID_00000118395182607778965060000018020951555442854307_);">
			<g>
				<rect x="120.202" y="416.79" style="fill:#B8B5FF;" width="48.353" height="34.843"/>
				<rect x="120.202" y="394.09" style="fill:#DAD9FF;" width="48.353" height="22.711"/>
				<rect x="120.193" y="451.549" style="fill:#7868E6;" width="48.451" height="48.451"/>
			</g>
			<g>
				<rect x="178.591" y="358.11" style="fill:#B8B5FF;" width="82.452" height="59.415"/>
				<rect x="178.591" y="319.401" style="fill:#DAD9FF;" width="82.452" height="38.726"/>
				<rect x="178.576" y="417.382" style="fill:#7868E6;" width="82.618" height="82.618"/>
			</g>
			<g>
				<rect x="274.915" y="435.929" style="fill:#B8B5FF;" width="37.231" height="26.829"/>
				<rect x="274.915" y="418.451" style="fill:#DAD9FF;" width="37.231" height="17.487"/>
				<rect x="274.908" y="462.694" style="fill:#7868E6;" width="37.306" height="37.306"/>
			</g>
			<g>
				<rect x="323.935" y="469.581" style="fill:#B8B5FF;" width="17.676" height="12.737"/>
				<rect x="323.935" y="461.283" style="fill:#DAD9FF;" width="17.676" height="8.302"/>
				<rect x="323.931" y="482.288" style="fill:#7868E6;" width="17.712" height="17.712"/>
			</g>
			<g>
				<rect x="92.521" y="469.581" style="fill:#B8B5FF;" width="17.676" height="12.737"/>
				<rect x="92.521" y="461.283" style="fill:#DAD9FF;" width="17.676" height="8.302"/>
				<rect x="92.518" y="482.288" style="fill:#7868E6;" width="17.712" height="17.712"/>
			</g>
		</g>
		<g style="clip-path:url(#SVGID_00000118395182607778965060000018020951555442854307_);">
			<rect x="703.44" y="25.342" style="fill:#FFFFFF;" width="17.653" height="17.653"/>
			<rect x="703.44" y="46.42" style="fill:#F5F6FF;" width="17.653" height="17.653"/>
			<rect x="703.44" y="67.498" style="fill:#FFFFFF;" width="17.653" height="17.653"/>
			<rect x="703.44" y="88.576" style="fill:#F5F6FF;" width="17.653" height="17.653"/>
			<rect x="703.44" y="109.654" style="fill:#FFFFFF;" width="17.653" height="17.653"/>
		</g>
		<g style="clip-path:url(#SVGID_00000118395182607778965060000018020951555442854307_);">
			<rect x="119.156" y="156.258" style="fill:#FFFFFF;" width="5.507" height="5.507"/>
			<rect x="119.156" y="169.408" style="fill:#FFFFFF;" width="5.507" height="5.507"/>
			<polyline style="fill:#FFFFFF;" points="119.156,188.065 119.156,182.558 124.662,182.558 124.662,188.065 			"/>
		</g>
		<g style="clip-path:url(#SVGID_00000118395182607778965060000018020951555442854307_);">
			<rect x="661.843" y="423.835" style="fill:#FFFFFF;" width="5.507" height="5.507"/>
			<rect x="661.843" y="436.985" style="fill:#FFFFFF;" width="5.507" height="5.507"/>
			<polyline style="fill:#FFFFFF;" points="661.843,455.642 661.843,450.135 667.35,450.135 667.35,455.642 			"/>
		</g>
		<g style="clip-path:url(#SVGID_00000118395182607778965060000018020951555442854307_);">
			<rect x="611.785" y="148.87" style="fill:#FFFFFF;" width="5.507" height="5.507"/>
			<rect x="611.785" y="162.02" style="fill:#FFFFFF;" width="5.507" height="5.507"/>
			<polyline style="fill:#FFFFFF;" points="611.785,180.677 611.785,175.17 617.291,175.17 617.291,180.677 			"/>
		</g>
		<g style="clip-path:url(#SVGID_00000118395182607778965060000018020951555442854307_);">
			<rect x="680.19" y="439.188" style="fill:#FFFFFF;" width="17.653" height="17.653"/>
			<rect x="680.19" y="460.266" style="fill:#F5F6FF;" width="17.653" height="17.653"/>
			<rect x="680.19" y="481.344" style="fill:#FFFFFF;" width="17.653" height="17.653"/>
			<rect x="680.19" y="502.422" style="fill:#F5F6FF;" width="17.653" height="17.653"/>
			<rect x="680.19" y="523.5" style="fill:#FFFFFF;" width="17.653" height="17.653"/>
		</g>
		
			<rect x="26.509" y="370.796" style="clip-path:url(#SVGID_00000118395182607778965060000018020951555442854307_);fill:#FFFFFF;" width="17.653" height="17.653"/>
		
			<rect x="26.509" y="391.873" style="clip-path:url(#SVGID_00000118395182607778965060000018020951555442854307_);fill:#FFFFFF;" width="17.653" height="17.653"/>
		
			<rect x="26.509" y="412.951" style="clip-path:url(#SVGID_00000118395182607778965060000018020951555442854307_);fill:#F5F6FF;" width="17.653" height="17.653"/>
		
			<rect x="26.509" y="434.029" style="clip-path:url(#SVGID_00000118395182607778965060000018020951555442854307_);fill:#FFFFFF;" width="17.653" height="17.653"/>
		
			<rect x="119.013" y="282.008" style="clip-path:url(#SVGID_00000118395182607778965060000018020951555442854307_);fill:#FFFFFF;" width="17.653" height="17.653"/>
		
			<rect x="428.096" y="130.194" style="clip-path:url(#SVGID_00000118395182607778965060000018020951555442854307_);fill:#FFFFFF;" width="17.653" height="17.653"/>
		
			<rect x="655.363" y="183.829" style="clip-path:url(#SVGID_00000118395182607778965060000018020951555442854307_);fill:#FFFFFF;" width="17.653" height="17.653"/>
		
			<rect x="339.652" y="18.643" style="clip-path:url(#SVGID_00000118395182607778965060000018020951555442854307_);fill:#FFFFFF;" width="17.653" height="17.653"/>
		
			<rect x="393.551" y="456.549" style="clip-path:url(#SVGID_00000118395182607778965060000018020951555442854307_);fill:#FFFFFF;" width="17.653" height="17.653"/>
		
			<rect x="26.509" y="455.107" style="clip-path:url(#SVGID_00000118395182607778965060000018020951555442854307_);fill:#FFFFFF;" width="17.653" height="17.653"/>
		<g style="clip-path:url(#SVGID_00000118395182607778965060000018020951555442854307_);">
			<path style="fill:none;stroke:#C5C7D9;stroke-width:2;stroke-linecap:round;stroke-miterlimit:10;" d="M612.233,238.556
				l-8.225,8.225c-0.3,0.3-0.786,0.3-1.087,0l-8.225-8.225"/>
			<path style="fill:none;stroke:#C5C7D9;stroke-width:2;stroke-linecap:round;stroke-miterlimit:10;" d="M612.233,253.001
				l-8.225,8.225c-0.3,0.3-0.786,0.3-1.087,0l-8.225-8.225"/>
		</g>
		<g style="clip-path:url(#SVGID_00000118395182607778965060000018020951555442854307_);">
			<path style="fill:none;stroke:#C5C7D9;stroke-width:2;stroke-linecap:round;stroke-miterlimit:10;" d="M59.158,433.493
				l8.225-8.225c0.3-0.3,0.786-0.3,1.087,0l8.225,8.225"/>
			<path style="fill:none;stroke:#C5C7D9;stroke-width:2;stroke-linecap:round;stroke-miterlimit:10;" d="M59.158,419.047
				l8.225-8.225c0.3-0.3,0.786-0.3,1.087,0l8.225,8.225"/>
		</g>
		<g style="clip-path:url(#SVGID_00000118395182607778965060000018020951555442854307_);">
			<path style="fill:none;stroke:#C5C7D9;stroke-width:2;stroke-linecap:round;stroke-miterlimit:10;" d="M169.771,263.975
				l8.225-8.225c0.3-0.3,0.786-0.3,1.087,0l8.225,8.225"/>
			<path style="fill:none;stroke:#C5C7D9;stroke-width:2;stroke-linecap:round;stroke-miterlimit:10;" d="M169.771,249.53
				l8.225-8.225c0.3-0.3,0.786-0.3,1.087,0l8.225,8.225"/>
		</g>
		<g style="clip-path:url(#SVGID_00000118395182607778965060000018020951555442854307_);">
			<path style="fill:none;stroke:#C5C7D9;stroke-width:2;stroke-linecap:round;stroke-miterlimit:10;" d="M433.024,477.641
				l8.225-8.225c0.3-0.3,0.787-0.3,1.087,0l8.225,8.225"/>
			<path style="fill:none;stroke:#C5C7D9;stroke-width:2;stroke-linecap:round;stroke-miterlimit:10;" d="M433.024,463.195
				l8.225-8.225c0.3-0.3,0.787-0.3,1.087,0l8.225,8.225"/>
		</g>
		<g style="clip-path:url(#SVGID_00000118395182607778965060000018020951555442854307_);">
			<path style="fill:none;stroke:#C5C7D9;stroke-width:2;stroke-linecap:round;stroke-miterlimit:10;" d="M286.898,362.861
				l8.225-8.225c0.3-0.3,0.786-0.3,1.086,0l8.225,8.225"/>
			<path style="fill:none;stroke:#C5C7D9;stroke-width:2;stroke-linecap:round;stroke-miterlimit:10;" d="M286.898,348.416
				l8.225-8.225c0.3-0.3,0.786-0.3,1.086,0l8.225,8.225"/>
		</g>
		<g style="clip-path:url(#SVGID_00000118395182607778965060000018020951555442854307_);">
			<polygon style="fill:#FFFFFF;" points="522.825,198.797 505.967,215.655 539.682,215.655 			"/>
			<polygon style="fill:#F5F6FF;" points="522.825,220.845 505.967,237.702 539.682,237.702 			"/>
		</g>
		<g style="clip-path:url(#SVGID_00000118395182607778965060000018020951555442854307_);">
			<polygon style="fill:#F5F6FF;" points="58.078,246.59 27.395,277.273 88.762,277.273 			"/>
			<polygon style="fill:#FFFFFF;" points="58.078,286.719 27.395,317.402 88.762,317.402 			"/>
		</g>
		
			<path style="clip-path:url(#SVGID_00000118395182607778965060000018020951555442854307_);fill:none;stroke:#C5C7D9;stroke-width:2;stroke-linecap:round;stroke-miterlimit:10;" d="
			M165.832-16.922c3.993,1.997,116.794,116.794,116.794,116.794h52.907l72.872,72.872"/>
		
			<polyline style="clip-path:url(#SVGID_00000118395182607778965060000018020951555442854307_);fill:none;stroke:#C5C7D9;stroke-width:2;stroke-linecap:round;stroke-miterlimit:10;" points="
			349.233,392.744 374.568,418.08 492.991,418.08 603.658,528.747 		"/>
		
			<line style="clip-path:url(#SVGID_00000118395182607778965060000018020951555442854307_);fill:none;stroke:#C5C7D9;stroke-width:2;stroke-linecap:round;stroke-miterlimit:10;" x1="557.736" y1="448.708" x2="667.041" y2="558.013"/>
		
			<line style="clip-path:url(#SVGID_00000118395182607778965060000018020951555442854307_);fill:none;stroke:#C5C7D9;stroke-width:2;stroke-linecap:round;stroke-miterlimit:10;" x1="83.317" y1="-72.074" x2="192.623" y2="37.231"/>
		
			<path style="clip-path:url(#SVGID_00000118395182607778965060000018020951555442854307_);fill:none;stroke:#C5C7D9;stroke-width:2;stroke-linecap:round;stroke-miterlimit:10;" d="
			M-53.202,137.354c6.936,6.936,91.771,91.771,91.771,91.771"/>
		
			<path style="clip-path:url(#SVGID_00000118395182607778965060000018020951555442854307_);fill:none;stroke:#C5C7D9;stroke-width:2;stroke-linecap:round;stroke-miterlimit:10;" d="
			M728.791,195.538c6.936,6.936,91.771,91.771,91.771,91.771"/>
		
			<path style="clip-path:url(#SVGID_00000118395182607778965060000018020951555442854307_);fill:none;stroke:#C5C7D9;stroke-width:2;stroke-linecap:round;stroke-miterlimit:10;" d="
			M659.107,143.193c6.936,6.936,91.771,91.771,91.771,91.771"/>
		
			<rect x="70.521" y="350.184" style="clip-path:url(#SVGID_00000118395182607778965060000018020951555442854307_);fill:#DAD9FF;" width="20.366" height="20.367"/>
		
			<rect x="304.008" y="48.35" style="clip-path:url(#SVGID_00000118395182607778965060000018020951555442854307_);fill:#DAD9FF;" width="20.366" height="20.367"/>
		
			<rect x="478.412" y="470.347" style="clip-path:url(#SVGID_00000118395182607778965060000018020951555442854307_);fill:#DAD9FF;" width="12.536" height="12.536"/>
		<g style="clip-path:url(#SVGID_00000118395182607778965060000018020951555442854307_);">
			<rect x="63.48" y="472.801" style="fill:#7868E6;" width="9.126" height="9.126"/>
			<rect x="63.48" y="490.768" style="fill:#7868E6;" width="9.126" height="9.126"/>
			<rect x="66.288" y="457.589" style="fill:#7868E6;" width="3.51" height="3.51"/>
		</g>
		<g style="clip-path:url(#SVGID_00000118395182607778965060000018020951555442854307_);">
			
				<rect x="286.307" y="18.19" transform="matrix(-1 -1.224647e-16 1.224647e-16 -1 581.74 45.5059)" style="fill:#7868E6;" width="9.126" height="9.127"/>
			
				<rect x="286.307" y="0.223" transform="matrix(-1 -1.224647e-16 1.224647e-16 -1 581.74 9.5723)" style="fill:#7868E6;" width="9.126" height="9.126"/>
			
				<rect x="289.115" y="39.019" transform="matrix(-1 -1.224647e-16 1.224647e-16 -1 581.74 81.5478)" style="fill:#7868E6;" width="3.51" height="3.51"/>
		</g>
		<g style="clip-path:url(#SVGID_00000118395182607778965060000018020951555442854307_);">
			<rect x="381.687" y="480.822" style="fill:#7868E6;" width="3.51" height="3.51"/>
			<rect x="378.339" y="491.036" style="fill:#7868E6;" width="9.127" height="9.127"/>
		</g>
		<g style="clip-path:url(#SVGID_00000118395182607778965060000018020951555442854307_);">
			
				<rect x="233.52" y="16.012" transform="matrix(-1 -1.224647e-16 1.224647e-16 -1 470.5494 35.5337)" style="fill:#7868E6;" width="3.51" height="3.51"/>
			
				<rect x="231.25" y="0.18" transform="matrix(-1 -1.224647e-16 1.224647e-16 -1 471.6275 9.4873)" style="fill:#7868E6;" width="9.127" height="9.126"/>
		</g>
		<g style="clip-path:url(#SVGID_00000118395182607778965060000018020951555442854307_);">
			
				<rect x="303.878" y="16.012" transform="matrix(-1 -1.224647e-16 1.224647e-16 -1 611.2657 35.5337)" style="fill:#7868E6;" width="3.51" height="3.51"/>
			
				<rect x="301.609" y="0.18" transform="matrix(-1 -1.224647e-16 1.224647e-16 -1 612.3437 9.4873)" style="fill:#7868E6;" width="9.127" height="9.126"/>
		</g>
		
			<rect x="714.107" y="161.4" style="clip-path:url(#SVGID_00000118395182607778965060000018020951555442854307_);fill:#DAD9FF;" width="12.536" height="12.536"/>
		
			<line style="clip-path:url(#SVGID_00000118395182607778965060000018020951555442854307_);fill:none;stroke:#C5C7D9;stroke-width:2;stroke-linecap:round;stroke-miterlimit:10;" x1="329.218" y1="373.034" x2="340.723" y2="384.539"/>
		
			<line style="clip-path:url(#SVGID_00000118395182607778965060000018020951555442854307_);fill:none;stroke:#C5C7D9;stroke-width:2;stroke-linecap:round;stroke-miterlimit:10;" x1="204.193" y1="47.81" x2="215.697" y2="59.314"/>
	</g>
</g>
</svg>
