<?xml version="1.0" encoding="utf-8"?>
<!-- Generator: Adobe Illustrator 27.5.0, SVG Export Plug-In . SVG Version: 6.00 Build 0)  -->
<svg version="1.1" xmlns="http://www.w3.org/2000/svg" xmlns:xlink="http://www.w3.org/1999/xlink" x="0px" y="0px"
	 viewBox="0 0 500 500" style="enable-background:new 0 0 500 500;" xml:space="preserve">
<g id="BACKGROUND">
	<rect style="fill:#EAE5FF;" width="500" height="500"/>
</g>
<g id="OBJECTS">
	<g>
		<path style="fill:#5C49EA;" d="M450.555,350.226c0,1.599-1.296,2.896-2.896,2.896c-1.599,0-2.895-1.296-2.895-2.896
			c0-1.599,1.296-2.895,2.895-2.895C449.258,347.331,450.555,348.627,450.555,350.226z"/>
		<path style="fill:#5C49EA;" d="M448.032,143.643c0,1.599-1.296,2.895-2.895,2.895c-1.599,0-2.896-1.296-2.896-2.895
			c0-1.599,1.296-2.896,2.896-2.896C446.735,140.748,448.032,142.044,448.032,143.643z"/>
		<path d="M49.445,168.26c0,1.599-1.296,2.896-2.896,2.896c-1.599,0-2.896-1.296-2.896-2.896c0-1.599,1.296-2.895,2.896-2.895
			C48.149,165.365,49.445,166.661,49.445,168.26z"/>
		<path style="fill:#CD93F8;" d="M170.853,45.128c0,1.599-1.296,2.895-2.895,2.895c-1.599,0-2.896-1.296-2.896-2.895
			c0-1.599,1.296-2.896,2.896-2.896C169.556,42.232,170.853,43.529,170.853,45.128z"/>
		<path d="M77.74,379.526c0,1.599-1.296,2.896-2.896,2.896c-1.599,0-2.895-1.296-2.895-2.896s1.296-2.896,2.895-2.896
			C76.443,376.63,77.74,377.927,77.74,379.526z"/>
		<path style="fill:#00DCBF;" d="M145.692,397.911c0,1.599-1.296,2.895-2.896,2.895c-1.599,0-2.895-1.296-2.895-2.895
			c0-1.599,1.296-2.896,2.895-2.896C144.395,395.016,145.692,396.312,145.692,397.911z"/>
		<path style="fill:#5C49EA;" d="M301.15,388.493c0,1.599-1.296,2.896-2.896,2.896c-1.599,0-2.895-1.296-2.895-2.896
			s1.296-2.896,2.895-2.896C299.853,385.598,301.15,386.894,301.15,388.493z"/>
		<path style="fill:none;stroke:#CD93F8;stroke-width:3.1312;stroke-linecap:round;stroke-miterlimit:10;" d="M413.902,139.487
			c21.313,31.547,33.757,69.577,33.757,110.513c0,27.291-5.531,53.29-15.533,76.938"/>
		<path style="fill:none;stroke:#00DCBF;stroke-width:3.1312;stroke-linecap:round;stroke-miterlimit:10;" d="M147.239,81.119
			c21.463-13.088,45.616-22.199,71.436-26.31"/>
		<path style="fill:none;stroke:#00DCBF;stroke-width:3.1312;stroke-linecap:round;stroke-miterlimit:10;" d="M55.387,284.758
			c-2.002-11.284-3.046-22.899-3.046-34.758c0-44.317,14.585-85.227,39.216-118.193"/>
		<path style="fill:none;stroke:#00DCBF;stroke-width:3.1312;stroke-linecap:round;stroke-miterlimit:10;" d="M185.108,423.02
			c-11.092-3.854-21.361-9.467-30.473-16.506"/>
		<path style="fill:none;stroke:#5C49EA;stroke-width:3.1312;stroke-linecap:round;stroke-miterlimit:10;" d="M453.119,164.188
			c11.157,26.375,17.326,55.373,17.326,85.813c0,30.437-6.169,59.433-17.324,85.807"/>
		<path style="fill:none;stroke:#000000;stroke-width:3.1312;stroke-linecap:round;stroke-miterlimit:10;" d="M61.209,363.878
			C41.117,330.641,29.555,291.671,29.555,250c0-22.069,3.243-43.38,9.278-63.484"/>
		<path style="fill:none;stroke:#CD93F8;stroke-width:3.1312;stroke-linecap:round;stroke-miterlimit:10;" d="M199.284,387.45
			c-19.202-7.088-36.512-18.084-50.962-32.024"/>
		<path style="fill:none;stroke:#5C49EA;stroke-width:3.1312;stroke-linecap:round;stroke-miterlimit:10;" d="M352.241,354.879
			c-11.516,11.228-24.874,20.575-39.579,27.546"/>
		<path style="fill:none;stroke:#000000;stroke-width:3.1312;stroke-linecap:round;stroke-miterlimit:10;" d="M146.431,146.432
			c19.563-19.563,44.633-33.617,72.686-39.638"/>
		<path style="fill:none;stroke:#000000;stroke-width:3.1312;stroke-linecap:round;stroke-miterlimit:10;" d="M350.412,446.3
			c-17.443,8.94-36.233,15.624-55.985,19.666"/>
		<path style="fill:none;stroke:#CD93F8;stroke-width:3.1312;stroke-linecap:round;stroke-miterlimit:10;" d="M203.54,33.537
			c14.981-3.2,30.524-4.884,46.46-4.884c42.15,0,81.549,11.782,115.082,32.231"/>
		<path style="fill:none;stroke:#5C49EA;stroke-width:2.6554;stroke-linecap:round;stroke-miterlimit:10;" d="M322.099,95.914
			c14.472,6.783,27.832,15.546,39.731,25.938"/>
	</g>
	<g>
		<g>
			<path style="fill:#130532;" d="M97.197,349.169c-6.618,0-11.983-5.365-11.983-11.983V164.129c0-6.618,5.365-11.983,11.983-11.983
				h305.605c6.618,0,11.983,5.365,11.983,11.983v173.047c0,6.623-5.369,11.992-11.993,11.992H97.197z"/>
			<path style="fill:#F5F3FF;" d="M405.669,181.885v150.399c0,4.294-3.473,7.768-7.758,7.768H102.09
				c-4.285,0-7.758-3.474-7.758-7.768V181.885H405.669z"/>
			<path style="fill:#5C49EA;" d="M405.669,169.021v12.864H94.331v-12.864c0-4.285,3.473-7.758,7.758-7.758H397.91
				C402.195,161.263,405.669,164.737,405.669,169.021z"/>
			<path style="fill:#FF84BC;" d="M118.816,172.098c0,2.12-1.718,3.838-3.838,3.838c-2.12,0-3.838-1.718-3.838-3.838
				s1.718-3.838,3.838-3.838C117.097,168.26,118.816,169.979,118.816,172.098z"/>
			<circle style="fill:#00DCBF;" cx="136.625" cy="172.098" r="3.838"/>
			<circle style="fill:#FFBC00;" cx="158.119" cy="172.098" r="3.838"/>
		</g>
		<g>
			<path style="fill:#EAE5FF;" d="M167.058,331.453h-60.867c-2.259,0-4.09-1.831-4.09-4.09v-132.79c0-2.259,1.831-4.09,4.09-4.09
				h60.867c2.259,0,4.09,1.831,4.09,4.09v132.79C171.148,329.622,169.317,331.453,167.058,331.453z"/>
			<path style="fill:#CD93F8;" d="M161.649,287.069h-50.049c-1.885,0-3.412-1.528-3.412-3.412v0c0-1.885,1.528-3.412,3.412-3.412
				h50.049c1.885,0,3.412,1.528,3.412,3.412v0C165.062,285.541,163.534,287.069,161.649,287.069z"/>
			<path style="fill:#CD93F8;" d="M161.947,269.749h-50.644c-1.72,0-3.115-1.394-3.115-3.115v-67.122
				c0-1.72,1.394-3.114,3.115-3.114h50.644c1.72,0,3.114,1.394,3.114,3.114v67.122C165.062,268.354,163.667,269.749,161.947,269.749
				z"/>
			<path style="fill:#CD93F8;" d="M161.649,298.958h-50.049c-1.885,0-3.412-1.528-3.412-3.412l0,0c0-1.885,1.528-3.412,3.412-3.412
				h50.049c1.885,0,3.412,1.528,3.412,3.412l0,0C165.062,297.43,163.534,298.958,161.649,298.958z"/>
			<path style="fill:#CD93F8;" d="M161.649,310.846h-50.049c-1.885,0-3.412-1.528-3.412-3.412l0,0c0-1.885,1.528-3.412,3.412-3.412
				h50.049c1.885,0,3.412,1.528,3.412,3.412l0,0C165.062,309.319,163.534,310.846,161.649,310.846z"/>
			<path style="fill:#CD93F8;" d="M161.649,322.735h-50.049c-1.885,0-3.412-1.528-3.412-3.412l0,0c0-1.885,1.528-3.412,3.412-3.412
				h50.049c1.885,0,3.412,1.528,3.412,3.412l0,0C165.062,321.207,163.534,322.735,161.649,322.735z"/>
			<path style="fill:#FFBC00;" d="M121.78,259.261h-7.337v-39.177c0-2.026,1.643-3.669,3.669-3.669l0,0
				c2.026,0,3.669,1.643,3.669,3.669V259.261z"/>
			<path style="fill:#FFBC00;" d="M146.465,259.261h-7.337v-34.212c0-2.026,1.642-3.669,3.669-3.669l0,0
				c2.026,0,3.669,1.643,3.669,3.669V259.261z"/>
			<path style="fill:#FFBC00;" d="M134.122,259.261h-7.337v-22.519c0-2.026,1.643-3.669,3.669-3.669l0,0
				c2.026,0,3.669,1.643,3.669,3.669V259.261z"/>
			<path style="fill:#FFBC00;" d="M158.807,259.261h-7.337V231.44c0-2.026,1.643-3.669,3.669-3.669l0,0
				c2.026,0,3.669,1.643,3.669,3.669V259.261z"/>
			<rect x="112.308" y="259.261" style="fill:#130532;" width="48.633" height="3.322"/>
		</g>
		<g>
			<path style="fill:#EAE5FF;" d="M392.378,331.453H181.721c-2.259,0-4.09-1.831-4.09-4.09v-51.747c0-2.259,1.831-4.09,4.09-4.09
				h210.657c2.259,0,4.09,1.831,4.09,4.09v51.747C396.468,329.622,394.637,331.453,392.378,331.453z"/>
			<g>
				<path style="fill:#F5F3FF;" d="M184.109,282.251L184.109,282.251c-0.443-0.391-0.485-1.067-0.094-1.51l1.214-1.375
					c0.391-0.443,1.067-0.485,1.51-0.094l0,0c0.443,0.391,0.485,1.067,0.094,1.51l-1.214,1.375
					C185.228,282.6,184.552,282.642,184.109,282.251z"/>
				<path style="fill:#F5F3FF;" d="M234.319,282.131L234.319,282.131c-0.196,0.557-0.807,0.85-1.365,0.654l-1.73-0.609
					c-0.557-0.196-0.85-0.807-0.654-1.365l0,0c0.196-0.557,0.807-0.85,1.365-0.654l1.73,0.609
					C234.223,280.962,234.516,281.573,234.319,282.131z"/>
				<path style="fill:#F5F3FF;" d="M199.433,321.94L199.433,321.94c-0.196,0.557-0.807,0.85-1.365,0.654l-1.73-0.609
					c-0.557-0.196-0.85-0.807-0.654-1.365l0,0c0.196-0.557,0.807-0.85,1.365-0.654l1.73,0.609
					C199.337,320.772,199.63,321.383,199.433,321.94z"/>
				<path style="fill:#F5F3FF;" d="M199.496,287.904L199.496,287.904c-0.03-0.59,0.424-1.093,1.014-1.123l1.832-0.093
					c0.59-0.03,1.093,0.424,1.123,1.014l0,0c0.03,0.59-0.424,1.093-1.014,1.123l-1.832,0.093
					C200.028,288.948,199.526,288.494,199.496,287.904z"/>
				<path style="fill:#F5F3FF;" d="M240.123,294.686L240.123,294.686c-0.03-0.59,0.424-1.093,1.014-1.123l1.832-0.093
					c0.59-0.03,1.093,0.424,1.123,1.014l0,0c0.03,0.59-0.424,1.093-1.014,1.123l-1.832,0.093
					C240.656,295.73,240.153,295.276,240.123,294.686z"/>
				<path style="fill:#F5F3FF;" d="M214.995,317.237L214.995,317.237c-0.03-0.59,0.424-1.093,1.014-1.123l1.832-0.093
					c0.59-0.03,1.093,0.424,1.123,1.014l0,0c0.03,0.59-0.424,1.093-1.014,1.123l-1.832,0.093
					C215.527,318.282,215.025,317.827,214.995,317.237z"/>
				<path style="fill:#F5F3FF;" d="M227.171,303.05L227.171,303.05c-0.03-0.59,0.424-1.093,1.014-1.123l1.832-0.093
					c0.59-0.03,1.093,0.424,1.123,1.014v0c0.03,0.59-0.424,1.093-1.014,1.123l-1.832,0.093
					C227.704,304.095,227.201,303.641,227.171,303.05z"/>
				<path style="fill:#F5F3FF;" d="M183.704,295.536L183.704,295.536c0.295-0.512,0.95-0.687,1.462-0.392l1.589,0.917
					c0.512,0.296,0.687,0.95,0.392,1.462l0,0c-0.295,0.512-0.95,0.687-1.462,0.392l-1.589-0.917
					C183.584,296.703,183.408,296.048,183.704,295.536z"/>
				<path style="fill:#F5F3FF;" d="M215.258,278.01L215.258,278.01c0.296-0.512,0.95-0.687,1.462-0.392l1.588,0.917
					c0.512,0.296,0.687,0.95,0.392,1.462l0,0c-0.296,0.512-0.95,0.687-1.462,0.392l-1.589-0.917
					C215.138,279.177,214.963,278.522,215.258,278.01z"/>
				<path style="fill:#F5F3FF;" d="M200.018,304.295L200.018,304.295c-0.4-0.435-0.372-1.112,0.063-1.512l1.35-1.241
					c0.435-0.4,1.112-0.372,1.512,0.063l0,0c0.4,0.435,0.372,1.112-0.063,1.512l-1.35,1.241
					C201.094,304.758,200.418,304.73,200.018,304.295z"/>
				<path style="fill:#F5F3FF;" d="M217.484,293.623L217.484,293.623c0.572,0.15,0.913,0.735,0.763,1.306l-0.466,1.774
					c-0.15,0.572-0.735,0.913-1.307,0.763l0,0c-0.572-0.15-0.913-0.735-0.763-1.307l0.466-1.774
					C216.327,293.815,216.912,293.473,217.484,293.623z"/>
				<path style="fill:#F5F3FF;" d="M244.357,308.974L244.357,308.974c0.418-0.418,1.095-0.418,1.513,0l1.297,1.297
					c0.418,0.418,0.418,1.095,0,1.513l0,0c-0.418,0.418-1.095,0.418-1.513,0l-1.297-1.297
					C243.939,310.069,243.939,309.391,244.357,308.974z"/>
				<path style="fill:#F5F3FF;" d="M259.994,281.734L259.994,281.734c0.572,0.15,0.913,0.735,0.763,1.307l-0.466,1.774
					c-0.15,0.572-0.735,0.913-1.307,0.763l0,0c-0.572-0.15-0.913-0.735-0.763-1.307l0.466-1.774
					C258.837,281.926,259.422,281.585,259.994,281.734z"/>
				<path style="fill:#F5F3FF;" d="M232.949,319.358L232.949,319.358c0.572,0.15,0.913,0.735,0.763,1.307l-0.466,1.774
					c-0.15,0.572-0.735,0.913-1.307,0.763l0,0c-0.572-0.15-0.913-0.735-0.763-1.306l0.466-1.774
					C231.793,319.55,232.378,319.208,232.949,319.358z"/>
				<path style="fill:#F5F3FF;" d="M184.626,312.236L184.626,312.236c0.572,0.15,0.913,0.735,0.763,1.307l-0.466,1.774
					c-0.15,0.572-0.735,0.913-1.307,0.763l0,0c-0.572-0.15-0.913-0.735-0.763-1.307l0.466-1.774
					C183.47,312.428,184.055,312.086,184.626,312.236z"/>
				<path style="fill:#F5F3FF;" d="M333.764,324.233L333.764,324.233c0.443,0.391,0.485,1.067,0.094,1.51l-1.214,1.375
					c-0.391,0.443-1.067,0.485-1.51,0.094l0,0c-0.443-0.391-0.485-1.067-0.093-1.51l1.214-1.375
					C332.645,323.884,333.322,323.842,333.764,324.233z"/>
				<path style="fill:#F5F3FF;" d="M283.554,324.353L283.554,324.353c0.196-0.557,0.807-0.85,1.365-0.654l1.73,0.609
					c0.557,0.196,0.85,0.807,0.654,1.365l0,0c-0.196,0.557-0.807,0.85-1.365,0.654l-1.73-0.609
					C283.651,325.522,283.358,324.91,283.554,324.353z"/>
				<path style="fill:#F5F3FF;" d="M318.44,284.543L318.44,284.543c0.196-0.557,0.807-0.85,1.365-0.654l1.73,0.61
					c0.557,0.196,0.85,0.807,0.654,1.365l0,0c-0.196,0.557-0.807,0.85-1.365,0.654l-1.73-0.609
					C318.537,285.712,318.244,285.101,318.44,284.543z"/>
				<path style="fill:#F5F3FF;" d="M318.378,318.58L318.378,318.58c0.03,0.59-0.424,1.093-1.014,1.123l-1.832,0.093
					c-0.59,0.03-1.093-0.424-1.123-1.014l0,0c-0.03-0.59,0.424-1.093,1.014-1.123l1.832-0.093
					C317.845,317.535,318.348,317.99,318.378,318.58z"/>
				<path style="fill:#F5F3FF;" d="M277.751,311.798L277.751,311.798c0.03,0.59-0.424,1.093-1.014,1.123l-1.832,0.093
					c-0.59,0.03-1.093-0.424-1.123-1.014l0,0c-0.03-0.59,0.424-1.093,1.014-1.123l1.832-0.093
					C277.218,310.753,277.721,311.207,277.751,311.798z"/>
				<path style="fill:#F5F3FF;" d="M302.879,289.246L302.879,289.246c0.03,0.59-0.424,1.093-1.014,1.123l-1.832,0.093
					c-0.59,0.03-1.093-0.424-1.123-1.014l0,0c-0.03-0.59,0.424-1.093,1.014-1.123l1.832-0.093
					C302.346,288.202,302.849,288.656,302.879,289.246z"/>
				<path style="fill:#F5F3FF;" d="M290.702,303.433L290.702,303.433c0.03,0.59-0.424,1.093-1.014,1.123l-1.832,0.093
					c-0.59,0.03-1.093-0.424-1.123-1.014v0c-0.03-0.59,0.424-1.093,1.014-1.123l1.832-0.093
					C290.17,302.389,290.672,302.843,290.702,303.433z"/>
				<path style="fill:#F5F3FF;" d="M334.17,310.947L334.17,310.947c-0.295,0.512-0.95,0.687-1.462,0.392l-1.589-0.917
					c-0.512-0.296-0.687-0.95-0.392-1.462l0,0c0.295-0.512,0.95-0.687,1.462-0.392l1.589,0.917
					C334.29,309.781,334.465,310.435,334.17,310.947z"/>
				<path style="fill:#F5F3FF;" d="M302.615,328.473L302.615,328.473c-0.296,0.512-0.95,0.687-1.462,0.392l-1.589-0.917
					c-0.512-0.296-0.687-0.95-0.392-1.462l0,0c0.296-0.512,0.95-0.687,1.462-0.392l1.589,0.917
					C302.735,327.307,302.911,327.961,302.615,328.473z"/>
				<path style="fill:#F5F3FF;" d="M317.856,302.189L317.856,302.189c0.4,0.435,0.372,1.112-0.063,1.512l-1.35,1.241
					c-0.435,0.4-1.112,0.372-1.512-0.063l0,0c-0.4-0.435-0.372-1.112,0.063-1.512l1.35-1.242
					C316.779,301.725,317.456,301.754,317.856,302.189z"/>
				<path style="fill:#F5F3FF;" d="M300.39,312.861L300.39,312.861c-0.572-0.15-0.913-0.735-0.763-1.307l0.466-1.774
					c0.15-0.572,0.735-0.913,1.307-0.763l0,0c0.572,0.15,0.913,0.735,0.763,1.307l-0.466,1.774
					C301.546,312.669,300.961,313.01,300.39,312.861z"/>
				<path style="fill:#F5F3FF;" d="M255.496,303.181L255.496,303.181c-0.572-0.15-0.913-0.735-0.763-1.306l0.466-1.774
					c0.15-0.572,0.735-0.913,1.307-0.763l0,0c0.572,0.15,0.913,0.735,0.763,1.307l-0.466,1.774
					C256.653,302.989,256.068,303.331,255.496,303.181z"/>
				<path style="fill:#F5F3FF;" d="M273.517,297.51L273.517,297.51c-0.418,0.418-1.095,0.418-1.513,0l-1.297-1.297
					c-0.418-0.418-0.418-1.095,0-1.513l0,0c0.418-0.418,1.095-0.418,1.513,0l1.297,1.297
					C273.935,296.415,273.935,297.092,273.517,297.51z"/>
				<path style="fill:#F5F3FF;" d="M257.88,324.749L257.88,324.749c-0.572-0.15-0.913-0.735-0.763-1.307l0.466-1.774
					c0.15-0.572,0.735-0.913,1.307-0.763l0,0c0.572,0.15,0.913,0.735,0.763,1.307l-0.466,1.774
					C259.036,324.557,258.451,324.899,257.88,324.749z"/>
				<path style="fill:#F5F3FF;" d="M284.924,287.126L284.924,287.126c-0.572-0.15-0.913-0.735-0.763-1.307l0.466-1.774
					c0.15-0.572,0.735-0.913,1.307-0.763l0,0c0.572,0.15,0.913,0.735,0.763,1.307l-0.466,1.774
					C286.081,286.934,285.496,287.276,284.924,287.126z"/>
				<path style="fill:#F5F3FF;" d="M333.247,294.248L333.247,294.248c-0.572-0.15-0.913-0.735-0.763-1.307l0.466-1.774
					c0.15-0.572,0.735-0.913,1.307-0.763l0,0c0.572,0.15,0.913,0.735,0.763,1.307l-0.466,1.774
					C334.404,294.056,333.819,294.398,333.247,294.248z"/>
				<path style="fill:#F5F3FF;" d="M347.414,283.444L347.414,283.444c-0.443-0.391-0.485-1.067-0.094-1.51l1.214-1.375
					c0.391-0.443,1.067-0.485,1.51-0.093l0,0c0.443,0.391,0.485,1.067,0.094,1.51l-1.214,1.375
					C348.533,283.794,347.857,283.836,347.414,283.444z"/>
				<path style="fill:#F5F3FF;" d="M362.738,323.134L362.738,323.134c-0.196,0.557-0.807,0.85-1.365,0.654l-1.73-0.609
					c-0.557-0.196-0.85-0.807-0.654-1.365l0,0c0.196-0.557,0.807-0.85,1.365-0.654l1.73,0.609
					C362.642,321.966,362.934,322.577,362.738,323.134z"/>
				<path style="fill:#F5F3FF;" d="M362.801,289.098L362.801,289.098c-0.03-0.59,0.424-1.093,1.014-1.123l1.832-0.093
					c0.59-0.03,1.093,0.424,1.123,1.014l0,0c0.03,0.59-0.424,1.093-1.014,1.123l-1.832,0.093
					C363.333,290.142,362.831,289.688,362.801,289.098z"/>
				<path style="fill:#F5F3FF;" d="M382.271,311.999L382.271,311.999c-0.03-0.59,0.424-1.093,1.014-1.123l1.832-0.093
					c0.59-0.03,1.093,0.424,1.123,1.014l0,0c0.03,0.59-0.424,1.093-1.014,1.123l-1.832,0.093
					C382.804,313.043,382.301,312.589,382.271,311.999z"/>
				<path style="fill:#F5F3FF;" d="M347.009,296.73L347.009,296.73c0.295-0.512,0.95-0.687,1.462-0.392l1.589,0.917
					c0.512,0.296,0.687,0.95,0.392,1.462l0,0c-0.295,0.512-0.95,0.687-1.462,0.392l-1.589-0.917
					C346.888,297.896,346.713,297.242,347.009,296.73z"/>
				<path style="fill:#F5F3FF;" d="M378.563,279.204L378.563,279.204c0.296-0.512,0.95-0.687,1.462-0.392l1.589,0.917
					c0.512,0.296,0.687,0.95,0.392,1.462l0,0c-0.296,0.512-0.95,0.687-1.462,0.392l-1.589-0.917
					C378.443,280.37,378.268,279.716,378.563,279.204z"/>
				<path style="fill:#F5F3FF;" d="M378.563,323.791L378.563,323.791c0.296-0.512,0.95-0.687,1.462-0.392l1.589,0.917
					c0.512,0.296,0.687,0.95,0.392,1.462l0,0c-0.296,0.512-0.95,0.687-1.462,0.392l-1.589-0.917
					C378.443,324.957,378.268,324.303,378.563,323.791z"/>
				<path style="fill:#F5F3FF;" d="M363.322,305.489L363.322,305.489c-0.4-0.435-0.372-1.112,0.063-1.512l1.35-1.242
					c0.435-0.4,1.112-0.372,1.512,0.063l0,0c0.4,0.435,0.372,1.112-0.063,1.512l-1.35,1.242
					C364.399,305.952,363.722,305.924,363.322,305.489z"/>
				<path style="fill:#F5F3FF;" d="M380.788,294.817L380.788,294.817c0.572,0.15,0.913,0.735,0.763,1.307l-0.466,1.774
					c-0.15,0.572-0.735,0.913-1.307,0.763l0,0c-0.572-0.15-0.913-0.735-0.763-1.307l0.466-1.774
					C379.632,295.009,380.217,294.667,380.788,294.817z"/>
				<path style="fill:#F5F3FF;" d="M347.931,313.43L347.931,313.43c0.572,0.15,0.913,0.735,0.763,1.307l-0.466,1.774
					c-0.15,0.572-0.735,0.913-1.307,0.763l0,0c-0.572-0.15-0.913-0.735-0.763-1.307l0.466-1.774
					C346.774,313.622,347.359,313.28,347.931,313.43z"/>
			</g>
			<g>
				<polyline style="fill:none;stroke:#CD93F8;stroke-width:2;stroke-miterlimit:10;" points="192.22,319.323 237.838,283.657 
					296.129,310.846 387.789,280.244 				"/>
				<polyline style="fill:none;stroke:#00DCBF;stroke-width:2;stroke-miterlimit:10;" points="192.22,297.032 256.533,310.846 
					310.637,289.989 387.789,315.91 				"/>
				<g>
					<path style="fill:#CD93F8;" d="M240.389,283.657c0,1.207-0.979,2.186-2.186,2.186c-1.207,0-2.186-0.979-2.186-2.186
						c0-1.207,0.979-2.186,2.186-2.186C239.41,281.47,240.389,282.449,240.389,283.657z"/>
					<path style="fill:#CD93F8;" d="M298.254,310.846c0,1.207-0.979,2.186-2.186,2.186c-1.207,0-2.186-0.979-2.186-2.186
						c0-1.207,0.979-2.186,2.186-2.186C297.275,308.66,298.254,309.639,298.254,310.846z"/>
					<path style="fill:#CD93F8;" d="M389.975,280.244c0,1.207-0.979,2.186-2.186,2.186c-1.207,0-2.186-0.979-2.186-2.186
						c0-1.207,0.979-2.186,2.186-2.186C388.996,278.058,389.975,279.037,389.975,280.244z"/>
					<path style="fill:#CD93F8;" d="M194.406,319.323c0,1.207-0.979,2.186-2.186,2.186c-1.207,0-2.186-0.979-2.186-2.186
						c0-1.207,0.979-2.186,2.186-2.186C193.427,317.137,194.406,318.115,194.406,319.323z"/>
				</g>
				<g>
					<path style="fill:#00DCBF;" d="M258.186,310.846c0,1.207-0.979,2.186-2.186,2.186c-1.207,0-2.186-0.979-2.186-2.186
						c0-1.207,0.979-2.186,2.186-2.186C257.208,308.66,258.186,309.639,258.186,310.846z"/>
					<path style="fill:#00DCBF;" d="M312.712,289.989c0,1.207-0.979,2.186-2.186,2.186c-1.207,0-2.186-0.979-2.186-2.186
						c0-1.207,0.979-2.186,2.186-2.186C311.733,287.803,312.712,288.782,312.712,289.989z"/>
					<path style="fill:#00DCBF;" d="M336.393,297.597c0,1.207-0.979,2.186-2.186,2.186c-1.207,0-2.186-0.979-2.186-2.186
						c0-1.207,0.979-2.186,2.186-2.186C335.414,295.411,336.393,296.39,336.393,297.597z"/>
					<path style="fill:#00DCBF;" d="M389.975,315.91c0,1.207-0.979,2.186-2.186,2.186c-1.207,0-2.186-0.979-2.186-2.186
						c0-1.207,0.979-2.186,2.186-2.186C388.996,313.724,389.975,314.703,389.975,315.91z"/>
					<path style="fill:#00DCBF;" d="M194.406,296.772c0,1.207-0.979,2.186-2.186,2.186c-1.207,0-2.186-0.979-2.186-2.186
						c0-1.207,0.979-2.186,2.186-2.186C193.427,294.585,194.406,295.564,194.406,296.772z"/>
				</g>
			</g>
		</g>
		<g>
			<path style="fill:#EAE5FF;" d="M392.378,265.058H181.721c-2.259,0-4.09-1.831-4.09-4.09v-66.395c0-2.259,1.831-4.09,4.09-4.09
				h210.657c2.259,0,4.09,1.831,4.09,4.09v66.395C396.468,263.227,394.637,265.058,392.378,265.058z"/>
			<g>
				<defs>
					<path id="SVGID_1_" d="M392.378,265.058H181.721c-2.259,0-4.09-1.831-4.09-4.09v-66.395c0-2.259,1.831-4.09,4.09-4.09h210.657
						c2.259,0,4.09,1.831,4.09,4.09v66.395C396.468,263.227,394.637,265.058,392.378,265.058z"/>
				</defs>
				<clipPath id="SVGID_00000116231150844710256060000002011504434804581767_">
					<use xlink:href="#SVGID_1_"  style="overflow:visible;"/>
				</clipPath>
				<g style="clip-path:url(#SVGID_00000116231150844710256060000002011504434804581767_);">
					<g>
						<path style="fill:none;stroke:#F5F3FF;stroke-width:2;stroke-miterlimit:10;" d="M174.361,197.327
							c10.338-9.7,24.704-13.923,38.775-15.648c14.071-1.725,28.351-1.274,42.395-3.204c14.044-1.93,28.339-6.602,38.242-16.746"/>
						<path style="fill:none;stroke:#F5F3FF;stroke-width:2;stroke-miterlimit:10;" d="M174.987,213.424
							c23.461,8.074,49.981,6.86,72.607-3.322c23.482-10.568,42.069-29.931,65.3-41.04c18.924-9.05,40.602-12.239,61.331-9.023"/>
						<path style="fill:none;stroke:#F5F3FF;stroke-width:2;stroke-miterlimit:10;" d="M387.84,179.968
							c-15.772,16.079-39.033,21.964-61.244,25.696c-22.212,3.732-45.374,6.247-64.772,17.692
							c-13.222,7.802-23.985,19.392-37.574,26.536c-16.842,8.854-37.524,10.057-55.279,3.215"/>
						<path style="fill:none;stroke:#F5F3FF;stroke-width:2;stroke-miterlimit:10;" d="M223.605,273.119
							c7.09-11.989,20.145-19.424,33.59-23.061c13.445-3.636,27.521-3.975,41.414-4.966c13.893-0.991,28.056-2.747,40.549-8.905
							c10.277-5.066,18.919-12.865,28.517-19.122c9.599-6.257,21.015-11.093,32.295-9.082"/>
						<path style="fill:none;stroke:#F5F3FF;stroke-width:2;stroke-miterlimit:10;" d="M271.323,276.006
							c19.402-1.239,38.431-7.884,54.386-18.992c8.472-5.898,16.165-13.064,25.484-17.505c13.885-6.617,29.896-6.529,45.275-6.31"/>
						<path style="fill:none;stroke:#F5F3FF;stroke-width:2;stroke-miterlimit:10;" d="M399.97,245.747
							c-13.644-5.045-28.749,1.208-41.297,8.569c-12.547,7.361-25.214,16.227-39.751,16.765"/>
						<path style="fill:none;stroke:#F5F3FF;stroke-width:2;stroke-miterlimit:10;" d="M366.046,272.717
							c7.574-10.674,20.861-17.023,33.924-16.21"/>
						<path style="fill:none;stroke:#F5F3FF;stroke-width:2;stroke-miterlimit:10;" d="M170.207,174.555
							c9.691,0.051,19.557,0.077,28.823-2.761c9.266-2.838,18.01-9.035,21.48-18.083"/>
						<path style="fill:none;stroke:#F5F3FF;stroke-width:2;stroke-miterlimit:10;" d="M355.869,163.944
							c-14.19,13.298-32.919,20.354-50.553,28.553c-22.106,10.278-43.221,22.806-66.129,31.146
							c-22.908,8.34-48.437,12.274-71.633,4.773"/>
					</g>
				</g>
			</g>
		</g>
	</g>
	<g>
		<g>
			<path style="fill:#5C49EA;" d="M137.629,102.243H60.495c-2.193,0-3.97-1.778-3.97-3.97V38.97c0-2.193,1.777-3.97,3.97-3.97
				h73.165c2.193,0,3.97,1.778,3.97,3.97V102.243z"/>
			<path style="fill:#5C49EA;" d="M118.591,102.243l14.969,13.218c1.581,1.396,4.07,0.274,4.07-1.836v-11.382H118.591z"/>
			<g>
				<path style="fill:#CD93F8;" d="M119.778,63.924v0.388L96.197,80.568L74.376,64.312v-0.388c0-1.398,1.126-2.524,2.524-2.524
					h40.355C118.652,61.4,119.778,62.526,119.778,63.924z"/>
				<polygon style="fill:#CD93F8;" points="119.778,58.488 119.778,64.312 96.197,84.433 74.376,64.312 74.376,58.488 
					97.957,42.232 				"/>
				<path style="fill:#EAE5FF;" d="M114.371,84.985c0,1.394-1.13,2.524-2.525,2.524h-14.77H82.308c-1.394,0-2.524-1.13-2.524-2.524
					V57.097c0-1.394,1.13-2.524,2.524-2.524h29.539c1.394,0,2.525,1.13,2.525,2.524V84.985z"/>
				<path style="fill:#FF84BC;" d="M119.778,64.312v24.953c0,1.385-1.126,2.524-2.524,2.524H76.899
					c-1.398,0-2.524-1.139-2.524-2.524V64.312l21.822,20.12L119.778,64.312z"/>
				<path style="fill:#FF84BC;" d="M104.877,62.71c1.78,1.78,1.78,4.666,0,6.447l-8.457,8.457l-0.011-0.011l-0.011,0.011
					l-8.462-8.455c-1.783-1.781-1.782-4.67,0.001-6.451l0.004-0.004c1.781-1.778,4.665-1.776,6.444,0.003l2.024,2.024l2.021-2.021
					C100.211,60.93,103.097,60.93,104.877,62.71L104.877,62.71z"/>
			</g>
		</g>
		<g>
			<path style="fill:#00DCBF;" d="M117.4,442.991H55.798c-1.372,0-2.484-1.112-2.484-2.484v-53.869c0-1.372,1.112-2.484,2.484-2.484
				H117.4c1.372,0,2.484,1.112,2.484,2.484v53.869C119.885,441.879,118.772,442.991,117.4,442.991z"/>
			<path style="fill:#00DCBF;" d="M95.206,388.493l19.403-17.133c2.049-1.81,5.275-0.355,5.275,2.379v14.754H95.206z"/>
			<rect x="93.668" y="402.896" style="fill:#FFBC00;" width="9.868" height="26.655"/>
			<path style="fill:#FF84BC;" d="M79.531,409.56h-6.536c-1.84,0-3.332-1.492-3.332-3.332l0,0c0-1.84,1.492-3.332,3.332-3.332h6.536
				V409.56z"/>
			<path style="fill:#FF84BC;" d="M79.531,416.224h-6.536c-1.84,0-3.332-1.492-3.332-3.332l0,0c0-1.84,1.492-3.332,3.332-3.332
				h6.536V416.224z"/>
			<path style="fill:#FF84BC;" d="M79.531,422.888h-6.536c-1.84,0-3.332-1.492-3.332-3.332v0c0-1.84,1.492-3.332,3.332-3.332h6.536
				V422.888z"/>
			<path style="fill:#FF84BC;" d="M79.531,429.552h-6.536c-1.84,0-3.332-1.492-3.332-3.332l0,0c0-1.84,1.492-3.332,3.332-3.332
				h6.536V429.552z"/>
			<rect x="74.043" y="402.896" style="fill:#FF84BC;" width="18.131" height="26.655"/>
			<path style="fill:#FF84BC;" d="M92.175,406.228v-10.691c0-1.424-1.683-2.18-2.747-1.234l0,0
				c-2.536,2.254-3.987,5.486-3.987,8.879v3.046H92.175z"/>
		</g>
		<g>
			<path style="fill:#CD93F8;" d="M452.03,453.904h-91.038c-1.75,0-3.169-1.419-3.169-3.169v-68.723c0-1.75,1.419-3.169,3.169-3.169
				h91.038c1.75,0,3.169,1.419,3.169,3.169v68.723C455.2,452.485,453.781,453.904,452.03,453.904z"/>
			<path style="fill:#CD93F8;" d="M382.041,381.476L363,364.663c-2.011-1.776-5.177-0.348-5.177,2.335v14.479H382.041z"/>
			<g>
				<rect x="374.472" y="407.076" style="fill:#5C49EA;" width="5.359" height="21.456"/>
				<path style="fill:#FFBC00;" d="M406.487,391.675l-15.203,5.122c-1.348,0.454-2.071,1.911-1.617,3.26l3.377,10.023
					c0.454,1.348,1.911,2.071,3.26,1.617l15.203-5.122c1.337-0.45,2.071-1.911,1.617-3.26l-3.377-10.023
					C409.293,391.944,407.824,391.225,406.487,391.675z M409.438,403.518l-13.338,4.493l-2.748-8.158l13.338-4.493L409.438,403.518z
					"/>
				<path style="fill:#EAE5FF;" d="M437.193,391.754v52.101c0,1.392-1.361,2.378-2.684,1.944l0,0l-2.67-0.881l-1.328-0.447
					l-5.367-1.762l-1.26-0.42l-2.684-0.881l-38.992-12.876v-21.455l38.992-12.876l2.684-0.881l1.26-0.42l5.367-1.762l1.328-0.447
					l2.67-0.881h0C435.833,389.376,437.193,390.361,437.193,391.754z"/>
				<polygon style="fill:#5C49EA;" points="430.511,391.138 430.511,444.47 425.145,442.708 425.145,392.9 				"/>
			</g>
		</g>
		<g>
			<g>
				<path style="fill:#CD93F8;" d="M307.045,113.471h-73.305c-2.154,0-3.9-1.746-3.9-3.9V50.128c0-2.154,1.746-3.9,3.9-3.9h73.305
					c2.154,0,3.9,1.746,3.9,3.9v59.443C310.945,111.725,309.199,113.471,307.045,113.471z"/>
				<path style="fill:#CD93F8;" d="M286.56,112.99c0,0-9.151,15.306-13.891,22.81c-1.281,2.027-4.237,2.027-5.517,0
					c-4.74-7.503-13.891-22.81-13.891-22.81H286.56z"/>
			</g>
			<g>
				<rect x="234.642" y="65.518" style="fill:none;stroke:#120730;stroke-miterlimit:10;" width="63.846" height="40.567"/>
				<path style="fill:#120730;" d="M236.828,65.518c0,1.207-0.979,2.186-2.186,2.186c-1.207,0-2.186-0.979-2.186-2.186
					c0-1.207,0.979-2.186,2.186-2.186C235.85,63.332,236.828,64.311,236.828,65.518z"/>
				<circle style="fill:#120730;" cx="298.488" cy="65.518" r="2.186"/>
				<path style="fill:#120730;" d="M236.828,106.086c0,1.207-0.979,2.186-2.186,2.186c-1.207,0-2.186-0.979-2.186-2.186
					c0-1.207,0.979-2.186,2.186-2.186C235.85,103.899,236.828,104.878,236.828,106.086z"/>
				<circle style="fill:#120730;" cx="298.488" cy="106.086" r="2.186"/>
			</g>
			<path style="fill:#F5F3FF;" d="M300.723,101.087h-58.691c-1.261,0-2.283-1.022-2.283-2.283v-37.91
				c0-1.261,1.022-2.283,2.283-2.283h58.691c1.261,0,2.283,1.022,2.283,2.283v37.91
				C303.006,100.065,301.984,101.087,300.723,101.087z"/>
			<path style="fill:#FF84BC;" d="M281.572,79.773l-16.857-9.732c-0.744-0.429-1.674,0.107-1.674,0.966v19.465
				c0,0.859,0.93,1.396,1.674,0.966l16.857-9.732C282.316,81.276,282.316,80.202,281.572,79.773z"/>
		</g>
		<g>
			<g>
				<g>
					<path style="fill:#5C49EA;" d="M207.441,397.911h73.305c2.154,0,3.9,1.746,3.9,3.9v59.443c0,2.154-1.746,3.9-3.9,3.9h-73.305
						c-2.154,0-3.9-1.746-3.9-3.9v-59.443C203.541,399.658,205.287,397.911,207.441,397.911z"/>
					<path style="fill:#5C49EA;" d="M227.927,398.392c0,0,9.151-15.306,13.891-22.809c1.281-2.027,4.236-2.027,5.517,0
						c4.74,7.503,13.891,22.809,13.891,22.809H227.927z"/>
				</g>
			</g>
			<g>
				<path style="fill:#EAE5FF;" d="M229.685,440.989h-6.538c-0.606,0-1.098-0.492-1.098-1.098V427.43
					c0-0.606,0.492-1.098,1.098-1.098h6.538c0.606,0,1.098,0.491,1.098,1.098v12.461
					C230.783,440.498,230.291,440.989,229.685,440.989z"/>
				<path style="fill:#EAE5FF;" d="M266.006,440.989h-6.538c-0.606,0-1.098-0.492-1.098-1.098V427.43
					c0-0.606,0.491-1.098,1.098-1.098h6.538c0.606,0,1.098,0.491,1.098,1.098v12.461
					C267.104,440.498,266.612,440.989,266.006,440.989z"/>
				<g>
					<path style="fill:#00DCBF;" d="M225.039,426.332c-0.566-22.191,29.626-28.109,37.853-7.604c0.881,2.447,1.31,5.051,1.142,7.604
						h-2.595c-0.289-4.438-2.268-8.586-5.369-11.533c-10.544-9.915-27.517-2.819-28.435,11.533
						C227.635,426.332,225.039,426.332,225.039,426.332L225.039,426.332z"/>
				</g>
				<path style="fill:none;stroke:#FF84BC;stroke-width:2.5953;stroke-miterlimit:10;" d="M226.416,440.989L226.416,440.989
					c0,5.812,4.712,10.524,10.524,10.524h7.597"/>
				<path style="fill:#FF84BC;" d="M247.958,451.513c0,1.889-1.531,3.421-3.421,3.421s-3.421-1.531-3.421-3.421
					s1.532-3.421,3.421-3.421S247.958,449.624,247.958,451.513z"/>
				<rect x="222.05" y="436.632" style="fill:#FFBC00;" width="8.733" height="1.987"/>
				<rect x="222.05" y="433.66" style="fill:#FFBC00;" width="8.733" height="1.987"/>
				<rect x="258.37" y="436.632" style="fill:#FFBC00;" width="8.733" height="1.987"/>
				<rect x="258.37" y="433.66" style="fill:#FFBC00;" width="8.733" height="1.987"/>
			</g>
		</g>
		<g>
			<g>
				<path style="fill:#00DCBF;" d="M438.963,74.532h-61.526c-1.183,0-2.142,0.959-2.142,2.142v46.445
					c0,1.183,0.959,2.142,2.142,2.142h61.526c1.183,0,2.142-0.959,2.142-2.142V76.674C441.105,75.491,440.146,74.532,438.963,74.532
					z"/>
				<path style="fill:#00DCBF;" d="M391.662,123.48l-12.869,11.363c-1.359,1.2-3.499,0.235-3.499-1.578v-9.785H391.662z"/>
			</g>
			<g>
				<path style="fill:#F5F3FF;stroke:#5C49EA;stroke-width:2.6554;stroke-linecap:round;stroke-miterlimit:10;" d="M422.98,112.979
					h-22.935c-6.567,0-11.891-5.324-11.891-11.891l0,0c0-6.567,5.324-11.891,11.891-11.891h22.935
					c6.567,0,11.891,5.324,11.891,11.891l0,0C434.872,107.655,429.548,112.979,422.98,112.979z"/>
				<circle style="fill:#5C49EA;" cx="422.68" cy="101.087" r="7.853"/>
			</g>
		</g>
	</g>
</g>
<g id="TEXTS">
	<text transform="matrix(1 0 0 1 392.9669 104.7586)" style="fill:#5C49EA; font-family:'Poppins-SemiBold'; font-size:10.5294px;">ads</text>
	
		<text transform="matrix(1 0 0 1 197.9287 247.3906)" style="fill:#5C49EA; font-family:'Poppins-ExtraBold'; font-size:60.1767px; letter-spacing:18;">CRM</text>
</g>
</svg>
